<?xml version="1.0" encoding="utf-8"?>
<!-- Generator: Adobe Illustrator 23.0.0, SVG Export Plug-In . SVG Version: 6.00 Build 0)  -->
<svg version="1.1" id="Layer_1" xmlns="http://www.w3.org/2000/svg" xmlns:xlink="http://www.w3.org/1999/xlink" x="0px" y="0px"
	 viewBox="0 0 347 314" style="enable-background:new 0 0 347 314;" xml:space="preserve">
<style type="text/css">
	.st0{fill:#0072B0;}
	.st1{fill:#999999;}
	.st2{fill:#FFFFFF;}
	.st3{fill:url(#SVGID_1_);}
	.st4{fill:url(#SVGID_2_);}
	.st5{fill:url(#SVGID_3_);}
	.st6{fill:url(#SVGID_4_);}
	.st7{fill:url(#SVGID_5_);}
</style>
<linearGradient id="SVGID_1_" gradientUnits="userSpaceOnUse" x1="0" y1="157" x2="347" y2="157">
	<stop  offset="0" style="stop-color:#EF782F"/>
	<stop  offset="1" style="stop-color:#D86E05"/>
</linearGradient>
<rect class="st3" width="347" height="314"/>
<g>
	<path class="st2" d="M74.69,136.69c0,3.31,1.21,4.96,3.64,4.96c1.12,0.01,2-0.38,2.63-1.16c0.64-0.78,0.96-1.76,0.96-2.96
		c0-2.23-1.51-4.03-4.54-5.38c-5.06-2.36-7.85-3.74-8.36-4.14c-0.45-0.33-0.86-0.68-1.24-1.05c-0.47,2.86-0.8,5.76-1,8.7l7.91,0.01
		V136.69z"/>
	<path class="st2" d="M256.01,110.07l-0.04,38.43l-11.12-0.01l0.01-17.58h-6.81l-0.02,17.58l-11.12-0.01l0.04-42.7l11.12,0.01
		l-0.01,15.67h6.81l0.02-15.66l9.5,0.01C239.9,70.14,204.91,45,164.04,45c-40.66,0-75.5,24.88-90.13,60.25
		c1.38-0.29,2.91-0.43,4.6-0.43c4.84,0.01,8.35,1.06,10.55,3.15c2.19,2.09,3.29,5.43,3.28,10.02l-10.4-0.01v-1.02
		c0-3.07-1.06-4.6-3.19-4.6c-1.13,0-2,0.36-2.6,1.1c-0.6,0.74-0.9,1.62-0.91,2.66c0,2.19,1.57,4.01,4.72,5.45
		c5.18,2.35,8.09,3.77,8.73,4.25c3.15,2.35,4.72,5.76,4.72,10.23c-0.01,8.77-5.06,13.15-15.14,13.14c-4.79-0.01-8.34-0.91-10.65-2.7
		c-0.37-0.3-0.72-0.62-1.03-0.97C68.18,197.97,111.2,240,164.04,240c31.42,0,59.37-14.86,77.18-37.94c-4.17-0.18-7.22-1.15-9.15-2.9
		c-2.27-2.08-3.4-5.6-3.4-10.59l10.41,0.01c-0.01,2.19,0.24,3.84,0.74,4.93c0.5,1.1,1.34,1.65,2.54,1.65c1.51,0,2.47-0.77,2.87-2.33
		c0.12-0.6,0.18-2.01,0.18-4.24c0.01-2.04-0.3-3.42-0.92-4.16c-0.62-0.74-1.66-1.11-3.14-1.11h-2.81l0.01-6.94h1.61
		c1.76,0,3-0.4,3.74-1.22c0.74-0.81,1.11-2.4,1.11-4.75c0-3.03-0.95-4.55-2.86-4.55c-1.1,0-1.89,0.43-2.36,1.28
		c-0.46,0.86-0.7,2.39-0.7,4.58l-10.05-0.01c0.25-8.53,4.7-12.79,13.35-12.78c5,0,8.55,1.02,10.63,3.05
		c1.84,1.84,2.76,4.73,2.75,8.68c0,1.99-0.44,3.7-1.32,5.14c-1.04,1.71-2.57,2.81-4.6,3.28v0.12c1.55,0.28,2.83,0.83,3.84,1.68
		c5.05-11.78,7.85-24.75,7.85-38.38C261.54,131.13,259.59,120.21,256.01,110.07z M123.17,148.39l-25.83-0.02l0.04-42.7l25.29,0.03
		l-0.01,9.08l-14.17-0.01l-0.01,7.3l13.28,0.01l-0.01,8.73l-13.27-0.01l-0.01,8.49l14.71,0.01L123.17,148.39z M146.79,148.41
		l-1.13-7.48h-8.85l-1.14,7.47l-11.84-0.01l10.44-42.68l13.99,0.01l10.37,42.7L146.79,148.41z M191.1,148.45l-11.84-0.01
		c-0.72-1.52-1.07-4.23-1.07-8.14v-2.87c0-2.39-0.27-4-0.8-4.84c-0.54-0.84-1.49-1.26-2.84-1.26h-2.93l-0.02,17.1l-11.12-0.01
		l0.04-42.69l17.4,0.01c7.81,0.01,11.71,3.8,11.71,11.37c-0.01,6.02-2.44,9.41-7.3,10.16v0.12c2.59,0.24,4.4,1.15,5.43,2.73
		c1.04,1.57,1.55,3.85,1.55,6.84v3.65c0,3.39,0.17,5.36,0.53,5.92c0.2,0.32,0.62,0.76,1.26,1.32V148.45z M196.48,144.15
		c-1.95-3.07-2.92-8.76-2.92-17.05c0.01-8.21,1.12-13.96,3.34-17.25c2.21-3.28,6.19-4.92,11.93-4.92
		c9.21,0.01,13.81,4.52,13.8,13.53v2.69l-10.76-0.01v-2.39c0-2.35-0.23-3.99-0.68-4.91c-0.46-0.91-1.25-1.37-2.36-1.37
		c-1.64-0.01-2.7,0.99-3.18,2.98c-0.4,1.76-0.6,5.64-0.61,11.66c0,6.02,0.2,9.91,0.59,11.66c0.48,2,1.53,2.99,3.17,2.99
		c1.71,0.01,2.77-1.43,3.17-4.3c0.12-0.75,0.18-2.81,0.19-6.16l10.76,0.01v3.17c-0.01,9.89-4.72,14.83-14.13,14.82
		C202.73,149.29,198.63,147.58,196.48,144.15z M225.44,192.87l-0.01,8.38l-27.86-0.03c0-6.5,2.12-11.9,6.35-16.2l7.42-7.52
		c2-2.04,2.99-4.35,3-6.94c0-3.15-0.96-4.72-2.87-4.73c-2.07,0-3.11,1.88-3.11,5.62v1.8l-10.41-0.01c0.08-4.86,0.97-8.33,2.64-10.4
		c2.12-2.63,5.86-3.94,11.24-3.94c5.15,0,8.81,1.14,11,3.42c1.76,1.83,2.63,4.54,2.63,8.13c-0.01,4.94-1.76,9.13-5.27,12.55
		l-6.59,6.4c-0.76,0.75-1.27,1.29-1.55,1.61c-0.6,0.68-1,1.29-1.2,1.85L225.44,192.87z"/>
	<path class="st2" d="M173.79,113.75h-2.16l-0.01,10.04l2.22,0.01c3.11,0,4.66-1.69,4.67-5.08
		C178.51,115.41,176.93,113.75,173.79,113.75z"/>
	<polygon class="st2" points="141.2,114.44 138.13,132.56 144.35,132.56 141.32,114.44 	"/>
</g>
<g>
	<path class="st2" d="M111.25,250.96h2.96c2.58,0.06,3.93,1.48,3.93,4.28c0,2.81-1.36,4.22-3.93,4.28h-2.96V250.96z M112.06,258.82
		h1.74c2.46,0.01,3.53-1.03,3.53-3.59s-1.07-3.6-3.53-3.59h-1.74V258.82z"/>
	<path class="st2" d="M119.77,256.63c0.01,1.1,0.59,2.43,2.04,2.43c1.1,0,1.7-0.65,1.94-1.58h0.75c-0.32,1.4-1.14,2.22-2.7,2.22
		c-1.97,0-2.79-1.51-2.79-3.27c0-1.63,0.83-3.27,2.79-3.27c1.99,0,2.78,1.74,2.72,3.48H119.77z M123.77,255.99
		c-0.04-1.14-0.74-2.21-1.97-2.21c-1.24,0-1.92,1.08-2.04,2.21H123.77z"/>
	<path class="st2" d="M129.26,255.14c-0.04-0.94-0.76-1.35-1.62-1.35c-0.67,0-1.46,0.26-1.46,1.07c0,0.67,0.77,0.91,1.28,1.04
		l1.01,0.23c0.86,0.13,1.76,0.64,1.76,1.72c0,1.34-1.33,1.86-2.48,1.86c-1.44,0-2.42-0.67-2.54-2.18h0.75
		c0.06,1.02,0.82,1.55,1.82,1.55c0.71,0,1.69-0.31,1.69-1.17c0-0.72-0.67-0.96-1.36-1.13l-0.97-0.22c-0.98-0.26-1.73-0.6-1.73-1.66
		c0-1.26,1.24-1.74,2.33-1.74c1.24,0,2.22,0.65,2.27,1.99H129.26z"/>
	<path class="st2" d="M131.33,250.96h0.76v1.21h-0.76V250.96z M131.33,253.33h0.76v6.19h-0.76V253.33z"/>
	<path class="st2" d="M138.77,259.02c-0.01,1.85-0.72,2.97-2.75,2.97c-1.24,0-2.46-0.55-2.57-1.87h0.76
		c0.17,0.91,0.97,1.24,1.81,1.24c1.39,0,1.99-0.83,1.99-2.34v-0.84h-0.02c-0.35,0.76-1.08,1.27-1.97,1.27
		c-1.98,0-2.79-1.42-2.79-3.18c0-1.7,1.01-3.12,2.79-3.12c0.9,0,1.67,0.56,1.97,1.25h0.02v-1.07h0.76V259.02z M138.02,256.35
		c0-1.21-0.56-2.57-1.99-2.57c-1.44,0-2.04,1.28-2.04,2.57c0,1.25,0.65,2.46,2.04,2.46C137.33,258.81,138.02,257.61,138.02,256.35z"
		/>
	<path class="st2" d="M140.2,253.33h0.75v1.07h0.02c0.28-0.74,1.1-1.25,1.98-1.25c1.74,0,2.27,0.91,2.27,2.39v3.98h-0.75v-3.86
		c0-1.07-0.35-1.87-1.57-1.87c-1.2,0-1.92,0.91-1.94,2.12v3.61h-0.75V253.33z"/>
	<path class="st2" d="M147.1,256.63c0.01,1.1,0.59,2.43,2.04,2.43c1.1,0,1.7-0.65,1.94-1.58h0.75c-0.32,1.4-1.14,2.22-2.7,2.22
		c-1.97,0-2.79-1.51-2.79-3.27c0-1.63,0.83-3.27,2.79-3.27c1.99,0,2.78,1.74,2.72,3.48H147.1z M151.11,255.99
		c-0.04-1.14-0.74-2.21-1.97-2.21c-1.24,0-1.92,1.08-2.04,2.21H151.11z"/>
	<path class="st2" d="M158.33,259.52h-0.7v-1.18h-0.02c-0.32,0.8-1.31,1.36-2.21,1.36c-1.88,0-2.78-1.52-2.78-3.27
		s0.9-3.27,2.78-3.27c0.92,0,1.82,0.47,2.15,1.35h0.02v-3.55h0.76V259.52z M155.41,259.06c1.61,0,2.17-1.35,2.17-2.64
		c0-1.28-0.56-2.64-2.17-2.64c-1.44,0-2.03,1.35-2.03,2.64C153.38,257.71,153.97,259.06,155.41,259.06z"/>
	<path class="st2" d="M164.31,253.33h1.26v0.64h-1.26v4.17c0,0.49,0.07,0.78,0.61,0.82c0.22,0,0.43-0.01,0.65-0.04v0.65
		c-0.23,0-0.44,0.02-0.67,0.02c-1.01,0-1.36-0.34-1.34-1.39v-4.23h-1.08v-0.64h1.08v-1.86h0.76V253.33z"/>
	<path class="st2" d="M172.2,256.42c0,1.78-1.03,3.27-2.93,3.27c-1.89,0-2.93-1.5-2.93-3.27c0-1.77,1.03-3.27,2.93-3.27
		C171.17,253.15,172.2,254.65,172.2,256.42z M167.11,256.42c0,1.32,0.72,2.64,2.17,2.64s2.17-1.32,2.17-2.64s-0.72-2.64-2.17-2.64
		S167.11,255.11,167.11,256.42z"/>
	<path class="st2" d="M176.66,250.96h0.75v3.44h0.02c0.28-0.74,1.1-1.25,1.98-1.25c1.74,0,2.27,0.91,2.27,2.39v3.98h-0.75v-3.86
		c0-1.07-0.35-1.87-1.57-1.87c-1.2,0-1.92,0.91-1.94,2.12v3.61h-0.75V250.96z"/>
	<path class="st2" d="M183.56,256.63c0.01,1.1,0.59,2.43,2.04,2.43c1.1,0,1.7-0.65,1.94-1.58h0.75c-0.32,1.4-1.14,2.22-2.7,2.22
		c-1.97,0-2.79-1.51-2.79-3.27c0-1.63,0.83-3.27,2.79-3.27c1.99,0,2.78,1.74,2.72,3.48H183.56z M187.56,255.99
		c-0.04-1.14-0.74-2.21-1.97-2.21c-1.24,0-1.92,1.08-2.04,2.21H187.56z"/>
	<path class="st2" d="M189.35,250.96h0.76v8.56h-0.76V250.96z"/>
	<path class="st2" d="M191.56,253.33h0.7v1.17h0.02c0.35-0.84,1.21-1.35,2.21-1.35c1.88,0,2.78,1.52,2.78,3.27s-0.9,3.27-2.78,3.27
		c-0.92,0-1.82-0.47-2.15-1.36h-0.02v3.47h-0.76V253.33z M194.49,253.79c-1.67,0-2.17,1.24-2.17,2.64c0,1.28,0.56,2.64,2.17,2.64
		c1.44,0,2.03-1.35,2.03-2.64C196.52,255.14,195.93,253.79,194.49,253.79z"/>
	<path class="st2" d="M201.09,253.33h0.8l2.04,5.28l1.91-5.28h0.76l-2.69,7.14c-0.43,1.04-0.68,1.34-1.63,1.34
		c-0.3-0.01-0.46-0.01-0.58-0.06v-0.64c0.18,0.04,0.35,0.06,0.52,0.06c0.67,0,0.83-0.4,1.08-0.97l0.26-0.71L201.09,253.33z"/>
	<path class="st2" d="M212.88,256.42c0,1.78-1.03,3.27-2.93,3.27c-1.89,0-2.93-1.5-2.93-3.27c0-1.77,1.03-3.27,2.93-3.27
		C211.85,253.15,212.88,254.65,212.88,256.42z M207.79,256.42c0,1.32,0.72,2.64,2.17,2.64s2.17-1.32,2.17-2.64s-0.72-2.64-2.17-2.64
		S207.79,255.11,207.79,256.42z"/>
	<path class="st2" d="M219.03,259.52h-0.7v-1.12h-0.02c-0.4,0.83-1.21,1.29-2.14,1.29c-1.56,0-2.17-0.91-2.17-2.35v-4.02h0.75v4.03
		c0.04,1.12,0.46,1.7,1.66,1.7c1.29,0,1.86-1.22,1.86-2.48v-3.25h0.75V259.52z"/>
</g>
</svg>
